<?xml version="1.0" encoding="utf-8"?>
<!-- Generator: Adobe Illustrator 24.0.0, SVG Export Plug-In . SVG Version: 6.00 Build 0)  -->
<svg version="1.1" id="Capa_1" xmlns="http://www.w3.org/2000/svg" xmlns:xlink="http://www.w3.org/1999/xlink" x="0px" y="0px"
	 viewBox="0 0 400 300" style="enable-background:new 0 0 400 300;" xml:space="preserve">
<style type="text/css">
	.st0{fill:red;}
	.st1{fill:#CA2586;}
	.st2{fill:#F39123;}
	.st3{fill:#F7EB5C;}
	.st4{fill:#FFFFFF;stroke:#5FB130;stroke-width:6;stroke-miterlimit:10;}
	.st5{fill:none;stroke:#5FB130;stroke-width:6;stroke-miterlimit:10;}
</style>
<rect x="41.78" y="35.29" class="st0" width="130.06" height="130.06"/>
<circle class="st1" cx="199.26" cy="205.51" r="66.94"/>
<polygon class="st2" points="208.82,57.6 199.99,45.44 184.96,45.82 193.8,33.66 188.79,19.48 203.09,24.13 215.02,14.98 
	215.02,30.02 227.4,38.54 213.1,43.19 "/>
<polygon class="st2" points="273.86,111.79 253.47,99.19 231.53,108.84 237.22,85.56 221.27,67.67 245.16,65.89 257.24,45.19 
	266.33,67.37 289.74,72.46 271.46,87.95 "/>
<polygon class="st2" points="314.02,45.19 306.19,38.89 296.56,41.77 300.13,32.37 294.42,24.1 304.46,24.6 310.56,16.61 
	313.19,26.31 322.67,29.64 314.26,35.14 "/>
<polygon class="st2" points="329.96,100.32 315.98,94 302.85,101.93 304.54,86.68 292.94,76.64 307.96,73.54 313.93,59.4 
	321.52,72.73 336.81,74.04 326.47,85.38 "/>
<polygon class="st2" points="308.55,155.15 290.79,147.39 274.33,157.61 276.23,138.33 261.42,125.83 280.34,121.68 287.65,103.73 
	297.45,120.44 316.78,121.85 303.91,136.33 "/>
<polygon class="st2" points="367.58,144.95 358.11,144.9 352.7,152.67 349.82,143.65 340.76,140.91 348.45,135.38 348.26,125.92 
	355.89,131.52 364.83,128.41 361.86,137.4 "/>
<polygon class="st2" points="360.56,80.67 353.47,82.56 351.01,89.47 347.02,83.31 339.68,83.1 344.31,77.4 342.23,70.36 349.08,73 
	355.14,68.86 354.75,76.19 "/>
<polygon class="st2" points="384.82,51.8 369.33,45.28 355.18,54.34 356.59,37.6 343.59,26.94 359.96,23.11 366.08,7.45 
	374.78,21.83 391.56,22.81 380.57,35.53 "/>
<polygon class="st3" points="144.43,218.27 86.36,224.49 51.93,177.31 75.57,123.91 133.65,117.68 168.07,164.86 "/>
<line class="st4" x1="277.04" y1="272.46" x2="339.68" y2="174.91"/>
<line class="st5" x1="300" y1="272.46" x2="350.12" y2="198.5"/>
<line class="st5" x1="336.81" y1="262.9" x2="360.56" y2="227.19"/>
<line class="st5" x1="363.75" y1="261.62" x2="367.58" y2="252.69"/>
</svg>
